<svg width="1792" height="1792" xmlns="http://www.w3.org/2000/svg">

 <g>
  <title>background</title>
  <rect fill="none" id="canvas_background" height="402" width="582" y="-1" x="-1"/>
 </g>
 <g>
  <title>Layer 1</title>
  <path stroke="null" id="svg_1" d="m461.115805,1426.233057q-9.302335,10.465127 -23.255837,-3.488376q-15.116294,-12.790711 -4.651167,-22.093046q9.302335,-10.465127 23.255837,3.488376q13.953502,12.790711 4.651167,22.093046zm-48.837259,-70.930304q10.465127,13.953502 0,22.093046q-9.302335,6.976751 -19.767462,-8.139543t0,-20.930254q10.465127,-8.139543 19.767462,6.976751zm-70.930304,-69.767512q-5.813959,8.139543 -15.116294,2.325584q-11.627919,-5.813959 -8.139543,-13.953502q3.488376,-5.813959 15.116294,-2.325584q11.627919,5.813959 8.139543,13.953502zm36.046548,39.534924q-6.976751,8.139543 -18.60467,-3.488376q-10.465127,-12.790711 -2.325584,-18.60467q6.976751,-6.976751 18.60467,3.488376q10.465127,12.790711 2.325584,18.60467zm150.000151,130.232689q-4.651167,13.953502 -22.093046,6.976751q-19.767462,-4.651167 -15.116294,-17.441878t22.093046,-8.139543q18.60467,5.813959 15.116294,18.60467zm73.255888,5.813959q0,12.790711 -18.60467,12.790711q-19.767462,2.325584 -19.767462,-12.790711q0,-12.790711 18.60467,-12.790711q19.767462,-2.325584 19.767462,12.790711zm67.441928,-11.627919q2.325584,11.627919 -16.279086,16.279086t-20.930254,-9.302335t16.279086,-17.441878q18.60467,-2.325584 20.930254,10.465127zm1120.931363,-1111.629028l0,1116.280196q0,138.372233 -98.255913,236.628146t-236.628146,98.255913l-260.465379,0q-18.60467,0 -28.488401,-1.162792t-22.674441,-5.813959t-18.60467,-16.860482t-5.813959,-31.976776l0,-277.907257q0,-112.790811 -60.465177,-165.116446q66.279137,-6.976751 119.186167,-20.930254t109.302436,-45.348883t94.186141,-77.325659t61.627969,-122.093146t23.837233,-175.000176q0,-140.697816 -91.860558,-239.535125q43.023299,-105.81406 -9.302335,-237.209542q-32.558172,-10.465127 -94.186141,12.790711t-106.976852,51.162842l-44.186091,27.907005q-108.139644,-30.232589 -223.256039,-30.232589t-223.256039,30.232589q-18.60467,-12.790711 -49.418654,-31.39538t-97.093121,-44.767487t-100.000101,-15.69769q-51.162842,131.395481 -8.139543,237.209542q-91.860558,98.837309 -91.860558,239.535125q0,98.837309 23.837233,174.418781t61.046573,122.093146t93.604746,77.907055t109.302436,45.348883t119.186167,20.930254q-46.511675,41.860507 -56.976802,119.767563q-24.418629,11.627919 -52.325634,17.441878t-66.279137,5.813959t-76.162868,-25.000025t-64.534949,-72.674492q-22.093046,-37.20934 -56.395406,-60.465177t-57.558198,-27.907005l-23.255837,-3.488376q-24.418629,0 -33.720964,5.232563t-5.813959,13.372107t10.465127,16.279086t15.116294,13.953502l8.139543,5.813959q25.581421,11.627919 50.581446,44.186091t36.627944,59.302385l11.627919,26.744213q15.116294,44.186091 51.162842,71.5117t77.907055,34.883756t80.814035,8.139543t64.534949,-4.069772l26.744213,-4.651167q0,44.186091 0.581396,119.767563t0.581396,79.069847q0,25.581421 -12.790711,38.953528t-25.581421,15.116294t-38.372132,1.744188l-260.465379,0q-138.372233,0 -236.628146,-98.255913t-98.255913,-236.628146l0,-1116.280196q0,-138.372233 98.255913,-236.628146t236.628146,-98.255913l1116.280196,0q138.372233,0 236.628146,98.255913t98.255913,236.628146z" fill="#949494"/>
 </g>
</svg>